<?xml version="1.0" encoding="UTF-8"?>
<svg width="851px" height="574px" viewBox="0 0 851 574" version="1.1" xmlns="http://www.w3.org/2000/svg" xmlns:xlink="http://www.w3.org/1999/xlink">
    <title>Group</title>
    <g id="1️⃣-Step-1---Place-Your-Screenshots-Here" stroke="none" stroke-width="1" fill="none" fill-rule="evenodd">
        <g id="Group" transform="translate(0, 1.146)">
            <polyline id="Path" stroke="color(display-p3 0.592 0.592 0.592)" fill="color(display-p3 0.157 0.157 0.157)" points="20.3180438 238.22391 92.1034634 238.22391 264.336263 64.187674 449.91332 238.22391 518.357454 238.22391 264.336263 0"></polyline>
            <polyline id="Path" stroke="color(display-p3 0.592 0.592 0.592)" fill="color(display-p3 0.153 0.153 0.153)" points="556.394531 99.4340421 524.058594 70.9077312 597 1.13686838e-13 847.054688 235.63463 777.707031 235.63463 597 63.7163845"></polyline>
            <polyline id="Path-Copy" stroke="color(display-p3 0.592 0.592 0.592)" fill="color(display-p3 0.682 0.561 0.396)" points="390.908203 100.12641 358.179688 70.2666494 432 1.13686838e-13 682.34375 235.63463 612.283203 235.63463 432 63.7163845"></polyline>
            <rect id="Rectangle" fill="color(display-p3 0.153 0.153 0.149)" x="229" y="155.539694" width="30" height="28.1343351"></rect>
            <rect id="Rectangle-Copy" fill="color(display-p3 0.153 0.153 0.149)" x="269" y="155.539694" width="30" height="28.1343351"></rect>
            <rect id="Rectangle-Copy-2" fill="color(display-p3 0.153 0.153 0.149)" x="269" y="193.989952" width="30" height="28.1343351"></rect>
            <rect id="Rectangle-Copy-3" fill="color(display-p3 0.153 0.153 0.149)" x="229" y="193.989952" width="30" height="28.1343351"></rect>
            <g id="ASPECT" transform="translate(-3, 232.4402)" fill="color(display-p3 0.000 0.000 0.000)" fill-rule="nonzero">
                <path d="M35.28,56 L77,56 L108.92,252 L78.12,252 L72.52,213.08 L72.52,213.64 L37.52,213.64 L31.92,252 L3.36,252 L35.28,56 Z M68.88,187.04 L55.16,90.16 L54.6,90.16 L41.16,187.04 L68.88,187.04 Z" id="Shape"></path>
                <path d="M207.46,254.8 C192.526667,254.8 181.233333,250.553333 173.58,242.06 C165.926667,233.566667 162.1,221.386667 162.1,205.52 L162.1,194.32 L191.22,194.32 L191.22,207.76 C191.22,220.453333 196.54,226.8 207.18,226.8 C212.406667,226.8 216.373333,225.26 219.08,222.18 C221.786667,219.1 223.14,214.106667 223.14,207.2 C223.14,198.986667 221.273333,191.753333 217.54,185.5 C213.806667,179.246667 206.9,171.733333 196.82,162.96 C184.126667,151.76 175.26,141.633333 170.22,132.58 C165.18,123.526667 162.66,113.306667 162.66,101.92 C162.66,86.4266667 166.58,74.4333333 174.42,65.94 C182.26,57.4466667 193.646667,53.2 208.58,53.2 C223.326667,53.2 234.48,57.4466667 242.04,65.94 C249.6,74.4333333 253.38,86.6133333 253.38,102.48 L253.38,110.6 L224.26,110.6 L224.26,100.52 C224.26,93.8 222.953333,88.9 220.34,85.82 C217.726667,82.74 213.9,81.2 208.86,81.2 C198.593333,81.2 193.46,87.4533333 193.46,99.96 C193.46,107.053333 195.373333,113.68 199.2,119.84 C203.026667,126 209.98,133.466667 220.06,142.24 C232.94,153.44 241.806667,163.613333 246.66,172.76 C251.513333,181.906667 253.94,192.64 253.94,204.96 C253.94,221.013333 249.973333,233.333333 242.04,241.92 C234.106667,250.506667 222.58,254.8 207.46,254.8 Z" id="Path"></path>
                <path d="M316.08,56 L361.44,56 C376.746667,56 388.226667,60.1066667 395.88,68.32 C403.533333,76.5333333 407.36,88.5733333 407.36,104.44 L407.36,123.76 C407.36,139.626667 403.533333,151.666667 395.88,159.88 C388.226667,168.093333 376.746667,172.2 361.44,172.2 L346.88,172.2 L346.88,252 L316.08,252 L316.08,56 Z M361.44,144.2 C366.48,144.2 370.26,142.8 372.78,140 C375.3,137.2 376.56,132.44 376.56,125.72 L376.56,102.48 C376.56,95.76 375.3,91 372.78,88.2 C370.26,85.4 366.48,84 361.44,84 L346.88,84 L346.88,144.2 L361.44,144.2 Z" id="Shape"></path>
                <polygon id="Path" points="468.66 56 552.66 56 552.66 84 499.46 84 499.46 135.8 541.74 135.8 541.74 163.8 499.46 163.8 499.46 224 552.66 224 552.66 252 468.66 252"></polygon>
                <path d="M658.2,254.8 C643.453333,254.8 632.206667,250.6 624.46,242.2 C616.713333,233.8 612.84,221.946667 612.84,206.64 L612.84,101.36 C612.84,86.0533333 616.713333,74.2 624.46,65.8 C632.206667,57.4 643.453333,53.2 658.2,53.2 C672.946667,53.2 684.193333,57.4 691.94,65.8 C699.686667,74.2 703.56,86.0533333 703.56,101.36 L703.56,122.08 L674.44,122.08 L674.44,99.4 C674.44,87.2666667 669.306667,81.2 659.04,81.2 C648.773333,81.2 643.64,87.2666667 643.64,99.4 L643.64,208.88 C643.64,220.826667 648.773333,226.8 659.04,226.8 C669.306667,226.8 674.44,220.826667 674.44,208.88 L674.44,178.92 L703.56,178.92 L703.56,206.64 C703.56,221.946667 699.686667,233.8 691.94,242.2 C684.193333,250.6 672.946667,254.8 658.2,254.8 Z" id="Path"></path>
                <polygon id="Path" points="790.62 84 758.42 84 758.42 56 853.62 56 853.62 84 821.42 84 821.42 252 790.62 252"></polygon>
            </g>
            <g id="BUILDS-&amp;-MAINTENANCE" transform="translate(20, 520.3433)" fill="color(display-p3 0.000 0.000 0.000)" fill-rule="nonzero">
                <path d="M3.339,13.158 L18.497,13.158 C20.7583333,13.158 22.6486667,13.4406667 24.168,14.006 C25.6873333,14.5713333 26.9063333,15.3133333 27.825,16.232 C28.7436667,17.1506667 29.4061667,18.2018333 29.8125,19.3855 C30.2188333,20.5691667 30.422,21.7616667 30.422,22.963 C30.422,23.9876667 30.2453333,24.9593333 29.892,25.878 C29.5386667,26.7966667 29.0351667,27.6093333 28.3815,28.316 C27.7278333,29.0226667 26.9505,29.6145 26.0495,30.0915 C25.1485,30.5685 24.1503333,30.8776667 23.055,31.019 L23.161,31.125 C23.4083333,31.0896667 23.9913333,31.1956667 24.91,31.443 C25.8286667,31.6903333 26.7915,32.1585 27.7985,32.8475 C28.8055,33.5365 29.7065,34.4905 30.5015,35.7095 C31.2965,36.9285 31.694,38.492 31.694,40.4 C31.694,42.1313333 31.376,43.6506667 30.74,44.958 C30.104,46.2653333 29.2118333,47.3695 28.0635,48.2705 C26.9151667,49.1715 25.5283333,49.8516667 23.903,50.311 C22.2776667,50.7703333 20.4756667,51 18.497,51 L3.339,51 L3.339,13.158 Z M18.497,30.33 C21.7123333,30.33 24.115,29.6145 25.705,28.1835 C27.295,26.7525 28.09,24.871 28.09,22.539 C28.09,21.161 27.825,20.0038333 27.295,19.0675 C26.765,18.1311667 26.0583333,17.3715 25.175,16.7885 C24.2916667,16.2055 23.2758333,15.7903333 22.1275,15.543 C20.9791667,15.2956667 19.769,15.172 18.497,15.172 L5.671,15.172 L5.671,30.33 L18.497,30.33 Z M18.497,48.986 C21.889,48.986 24.5478333,48.2705 26.4735,46.8395 C28.3991667,45.4085 29.362,43.262 29.362,40.4 C29.362,38.7746667 29.0263333,37.4408333 28.355,36.3985 C27.6836667,35.3561667 26.8268333,34.5346667 25.7845,33.934 C24.7421667,33.3333333 23.5761667,32.9181667 22.2865,32.6885 C20.9968333,32.4588333 19.7336667,32.344 18.497,32.344 L5.671,32.344 L5.671,48.986 L18.497,48.986 Z" id="Shape"></path>
                <path d="M42.7193301,13.158 L42.7193301,35.842 C42.7193301,36.584 42.7546634,37.4496667 42.8253301,38.439 C42.8959968,39.4283333 43.0726634,40.4441667 43.3553301,41.4865 C43.6379968,42.5288333 44.0354968,43.5535 44.5478301,44.5605 C45.0601634,45.5675 45.7579968,46.4685 46.6413301,47.2635 C47.5246634,48.0585 48.6111634,48.6945 49.9008301,49.1715 C51.1904968,49.6485 52.7539968,49.887 54.5913301,49.887 C56.9233301,49.887 58.8754968,49.5601667 60.4478301,48.9065 C62.0201634,48.2528333 63.2921634,47.3165 64.2638301,46.0975 C65.2354968,44.8785 65.9333301,43.4033333 66.3573301,41.672 C66.7813301,39.9406667 66.9933301,37.9973333 66.9933301,35.842 L66.9933301,13.158 L69.3253301,13.158 L69.3253301,35.842 C69.3253301,38.1033333 69.0868301,40.2056667 68.6098301,42.149 C68.1328301,44.0923333 67.3289968,45.7883333 66.1983301,47.237 C65.0676634,48.6856667 63.5571634,49.8251667 61.6668301,50.6555 C59.7764968,51.4858333 57.4179968,51.901 54.5913301,51.901 C52.3653301,51.901 50.4573301,51.6183333 48.8673301,51.053 C47.2773301,50.4876667 45.9611634,49.7545 44.9188301,48.8535 C43.8764968,47.9525 43.0549968,46.919 42.4543301,45.753 C41.8536634,44.587 41.3943301,43.4121667 41.0763301,42.2285 C40.7583301,41.0448333 40.5639968,39.8965 40.4933301,38.7835 C40.4226634,37.6705 40.3873301,36.69 40.3873301,35.842 L40.3873301,13.158 L42.7193301,13.158 Z" id="Path"></path>
                <polygon id="Path" points="79.6616602 13.158 81.9936602 13.158 81.9936602 51 79.6616602 51"></polygon>
                <polygon id="Path" points="92.3299903 13.158 94.6619903 13.158 94.6619903 48.986 116.12699 48.986 116.12699 51 92.3299903 51"></polygon>
                <path d="M122.48832,13.158 L134.89032,13.158 C138.28232,13.158 141.100154,13.688 143.34382,14.748 C145.587487,15.808 147.380654,17.2213333 148.72332,18.988 C150.065987,20.7546667 151.011154,22.7686667 151.55882,25.03 C152.106487,27.2913333 152.38032,29.6233333 152.38032,32.026 C152.38032,34.7113333 152.03582,37.2111667 151.34682,39.5255 C150.65782,41.8398333 149.588987,43.845 148.14032,45.541 C146.691654,47.237 144.863154,48.5708333 142.65482,49.5425 C140.446487,50.5141667 137.822987,51 134.78432,51 L122.48832,51 L122.48832,13.158 Z M134.99632,48.986 C136.762987,48.986 138.538487,48.7121667 140.32282,48.1645 C142.107154,47.6168333 143.723654,46.6981667 145.17232,45.4085 C146.620987,44.1188333 147.79582,42.3875 148.69682,40.2145 C149.59782,38.0415 150.04832,35.312 150.04832,32.026 C150.04832,29.4466667 149.792154,27.2383333 149.27982,25.401 C148.767487,23.5636667 148.096154,22.0178333 147.26582,20.7635 C146.435487,19.5091667 145.481487,18.5198333 144.40382,17.7955 C143.326154,17.0711667 142.213154,16.5146667 141.06482,16.126 C139.916487,15.7373333 138.768154,15.4811667 137.61982,15.3575 C136.471487,15.2338333 135.437987,15.172 134.51932,15.172 L124.82032,15.172 L124.82032,48.986 L134.99632,48.986 Z" id="Shape"></path>
                <path d="M186.195651,23.97 C186.124984,22.3446667 185.780484,20.9313333 185.162151,19.73 C184.543817,18.5286667 183.704651,17.5216667 182.644651,16.709 C181.584651,15.8963333 180.321484,15.2868333 178.855151,14.8805 C177.388817,14.4741667 175.789984,14.271 174.058651,14.271 C172.998651,14.271 171.859151,14.3946667 170.640151,14.642 C169.421151,14.8893333 168.290484,15.3221667 167.248151,15.9405 C166.205817,16.5588333 165.348984,17.3891667 164.677651,18.4315 C164.006317,19.4738333 163.670651,20.7723333 163.670651,22.327 C163.670651,23.8463333 164.041651,25.083 164.783651,26.037 C165.525651,26.991 166.497317,27.7595 167.698651,28.3425 C168.899984,28.9255 170.277984,29.3936667 171.832651,29.747 C173.387317,30.1003333 174.959651,30.436 176.549651,30.754 C178.174984,31.072 179.756151,31.4518333 181.293151,31.8935 C182.830151,32.3351667 184.208151,32.9358333 185.427151,33.6955 C186.646151,34.4551667 187.626651,35.4445 188.368651,36.6635 C189.110651,37.8825 189.481651,39.4106667 189.481651,41.248 C189.481651,43.2266667 189.057651,44.8873333 188.209651,46.23 C187.361651,47.5726667 186.292817,48.668 185.003151,49.516 C183.713484,50.364 182.282484,50.9735 180.710151,51.3445 C179.137817,51.7155 177.627317,51.901 176.178651,51.901 C173.952651,51.901 171.867984,51.6625 169.924651,51.1855 C167.981317,50.7085 166.285317,49.9311667 164.836651,48.8535 C163.387984,47.7758333 162.248484,46.389 161.418151,44.693 C160.587817,42.997 160.190317,40.93 160.225651,38.492 L162.557651,38.492 C162.451651,40.5766667 162.751984,42.3345 163.458651,43.7655 C164.165317,45.1965 165.145817,46.3713333 166.400151,47.29 C167.654484,48.2086667 169.129651,48.8711667 170.825651,49.2775 C172.521651,49.6838333 174.305984,49.887 176.178651,49.887 C177.309317,49.887 178.519484,49.7456667 179.809151,49.463 C181.098817,49.1803333 182.282484,48.7033333 183.360151,48.032 C184.437817,47.3606667 185.338817,46.4773333 186.063151,45.382 C186.787484,44.2866667 187.149651,42.9086667 187.149651,41.248 C187.149651,39.658 186.778651,38.3595 186.036651,37.3525 C185.294651,36.3455 184.314151,35.5328333 183.095151,34.9145 C181.876151,34.2961667 180.498151,33.8015 178.961151,33.4305 C177.424151,33.0595 175.842984,32.715 174.217651,32.397 C172.627651,32.079 171.055317,31.708 169.500651,31.284 C167.945984,30.86 166.567984,30.2858333 165.366651,29.5615 C164.165317,28.8371667 163.193651,27.9008333 162.451651,26.7525 C161.709651,25.6041667 161.338651,24.129 161.338651,22.327 C161.338651,20.525 161.718484,18.9791667 162.478151,17.6895 C163.237817,16.3998333 164.227151,15.3575 165.446151,14.5625 C166.665151,13.7675 168.034317,13.1845 169.553651,12.8135 C171.072984,12.4425 172.574651,12.257 174.058651,12.257 C176.037317,12.257 177.883484,12.4778333 179.597151,12.9195 C181.310817,13.3611667 182.812484,14.0501667 184.102151,14.9865 C185.391817,15.9228333 186.425317,17.133 187.202651,18.617 C187.979984,20.101 188.421651,21.8853333 188.527651,23.97 L186.195651,23.97 Z" id="Path"></path>
                <path d="M215.878311,41.99 C215.878311,40.4353333 216.187477,39.075 216.805811,37.909 C217.424144,36.743 218.210311,35.7006667 219.164311,34.782 C220.118311,33.8633333 221.178311,33.033 222.344311,32.291 C223.510311,31.549 224.640977,30.8246667 225.736311,30.118 C225.135644,29.376 224.534977,28.6428333 223.934311,27.9185 C223.333644,27.1941667 222.785977,26.4345 222.291311,25.6395 C221.796644,24.8445 221.390311,24.0141667 221.072311,23.1485 C220.754311,22.2828333 220.595311,21.3376667 220.595311,20.313 C220.595311,19.3236667 220.824977,18.4315 221.284311,17.6365 C221.743644,16.8415 222.344311,16.1613333 223.086311,15.596 C223.828311,15.0306667 224.676311,14.589 225.630311,14.271 C226.584311,13.953 227.555977,13.794 228.545311,13.794 C229.569977,13.794 230.559311,13.9353333 231.513311,14.218 C232.467311,14.5006667 233.315311,14.9158333 234.057311,15.4635 C234.799311,16.0111667 235.391144,16.6913333 235.832811,17.504 C236.274477,18.3166667 236.495311,19.253 236.495311,20.313 C236.495311,21.6556667 236.256811,22.8216667 235.779811,23.811 C235.302811,24.8003333 234.693311,25.6925 233.951311,26.4875 C233.209311,27.2825 232.370144,28.0068333 231.433811,28.6605 C230.497477,29.3141667 229.569977,29.9766667 228.651311,30.648 L237.661311,41.725 C238.049977,40.7356667 238.359144,39.711 238.588811,38.651 C238.818477,37.591 238.933311,36.5133333 238.933311,35.418 L240.947311,35.418 C240.876644,36.796 240.673477,38.1651667 240.337811,39.5255 C240.002144,40.8858333 239.569311,42.1843333 239.039311,43.421 L245.187311,51 L242.484311,51 L237.873311,45.382 C236.707311,47.3253333 235.205644,48.8535 233.368311,49.9665 C231.530977,51.0795 229.446311,51.636 227.114311,51.636 C225.524311,51.636 224.049144,51.4328333 222.688811,51.0265 C221.328477,50.6201667 220.144811,50.0195 219.137811,49.2245 C218.130811,48.4295 217.335811,47.4225 216.752811,46.2035 C216.169811,44.9845 215.878311,43.58 215.878311,41.99 Z M227.485311,29.164 C228.262644,28.6693333 229.057644,28.1305 229.870311,27.5475 C230.682977,26.9645 231.433811,26.3196667 232.122811,25.613 C232.811811,24.9063333 233.377144,24.1113333 233.818811,23.228 C234.260477,22.3446667 234.481311,21.373 234.481311,20.313 C234.481311,19.6063333 234.304644,18.9615 233.951311,18.3785 C233.597977,17.7955 233.147477,17.292 232.599811,16.868 C232.052144,16.444 231.424977,16.1171667 230.718311,15.8875 C230.011644,15.6578333 229.287311,15.543 228.545311,15.543 C227.803311,15.543 227.078977,15.6578333 226.372311,15.8875 C225.665644,16.1171667 225.038477,16.444 224.490811,16.868 C223.943144,17.292 223.492644,17.7955 223.139311,18.3785 C222.785977,18.9615 222.609311,19.6063333 222.609311,20.313 C222.609311,21.2316667 222.785977,22.0885 223.139311,22.8835 C223.492644,23.6785 223.916644,24.4381667 224.411311,25.1625 C224.905977,25.8868333 225.435977,26.5758333 226.001311,27.2295 C226.566644,27.8831667 227.061311,28.528 227.485311,29.164 Z M217.892311,41.99 C217.892311,43.2266667 218.157311,44.3396667 218.687311,45.329 C219.217311,46.3183333 219.915144,47.1486667 220.780811,47.82 C221.646477,48.4913333 222.626977,49.0036667 223.722311,49.357 C224.817644,49.7103333 225.948311,49.887 227.114311,49.887 C228.704311,49.887 230.091144,49.5778333 231.274811,48.9595 C232.458477,48.3411667 233.438977,47.661 234.216311,46.919 C234.993644,46.177 235.576644,45.4791667 235.965311,44.8255 C236.353977,44.1718333 236.548311,43.8096667 236.548311,43.739 L226.796311,31.602 C225.806977,32.238 224.791144,32.8828333 223.748811,33.5365 C222.706477,34.1901667 221.752477,34.9233333 220.886811,35.736 C220.021144,36.5486667 219.305644,37.4585 218.740311,38.4655 C218.174977,39.4725 217.892311,40.6473333 217.892311,41.99 Z" id="Shape"></path>
                <polygon id="Path" points="270.417971 13.158 273.756971 13.158 288.543971 48.403 288.649971 48.403 303.277971 13.158 306.616971 13.158 306.616971 51 304.284971 51 304.284971 16.02 304.178971 16.02 289.762971 51 287.430971 51 272.855971 16.02 272.749971 16.02 272.749971 51 270.417971 51"></polygon>
                <path d="M328.189301,13.158 L330.733301,13.158 L345.679301,51 L343.188301,51 L338.418301,38.863 L320.292301,38.863 L315.469301,51 L312.978301,51 L328.189301,13.158 Z M337.676301,36.849 L329.567301,15.437 L329.461301,15.437 L321.034301,36.849 L337.676301,36.849 Z" id="Shape"></path>
                <polygon id="Path" points="352.040631 13.158 354.372631 13.158 354.372631 51 352.040631 51"></polygon>
                <polygon id="Path" points="364.708961 13.158 367.623961 13.158 391.526961 47.873 391.632961 47.873 391.632961 13.158 393.964961 13.158 393.964961 51 391.208961 51 367.146961 16.02 367.040961 16.02 367.040961 51 364.708961 51"></polygon>
                <polygon id="Path" points="400.220292 15.172 400.220292 13.158 429.211292 13.158 429.211292 15.172 415.855292 15.172 415.855292 51 413.523292 51 413.523292 15.172"></polygon>
                <polygon id="Path" points="435.466622 13.158 460.906622 13.158 460.906622 15.172 437.798622 15.172 437.798622 30.33 459.528622 30.33 459.528622 32.344 437.798622 32.344 437.798622 48.986 461.171622 48.986 461.171622 51 435.466622 51"></polygon>
                <polygon id="Path" points="468.804952 13.158 471.719952 13.158 495.622952 47.873 495.728952 47.873 495.728952 13.158 498.060952 13.158 498.060952 51 495.304952 51 471.242952 16.02 471.136952 16.02 471.136952 51 468.804952 51"></polygon>
                <path d="M519.633282,13.158 L522.177282,13.158 L537.123282,51 L534.632282,51 L529.862282,38.863 L511.736282,38.863 L506.913282,51 L504.422282,51 L519.633282,13.158 Z M529.120282,36.849 L521.011282,15.437 L520.905282,15.437 L512.478282,36.849 L529.120282,36.849 Z" id="Shape"></path>
                <polygon id="Path" points="543.484612 13.158 546.399612 13.158 570.302612 47.873 570.408612 47.873 570.408612 13.158 572.740612 13.158 572.740612 51 569.984612 51 545.922612 16.02 545.816612 16.02 545.816612 51 543.484612 51"></polygon>
                <path d="M581.645942,32.079 C581.645942,29.323 582.052275,26.7348333 582.864942,24.3145 C583.677609,21.8941667 584.852442,19.7918333 586.389442,18.0075 C587.926442,16.2231667 589.816775,14.8186667 592.060442,13.794 C594.304109,12.7693333 596.839275,12.257 599.665942,12.257 C601.891942,12.257 603.817609,12.5485 605.442942,13.1315 C607.068275,13.7145 608.437442,14.4388333 609.550442,15.3045 C610.663442,16.1701667 611.573275,17.1153333 612.279942,18.14 C612.986609,19.1646667 613.525442,20.1275 613.896442,21.0285 C614.267442,21.9295 614.523609,22.7068333 614.664942,23.3605 C614.806275,24.0141667 614.876942,24.3763333 614.876942,24.447 L612.544942,24.447 C612.297609,22.857 611.785275,21.4348333 611.007942,20.1805 C610.230609,18.9261667 609.258942,17.8573333 608.092942,16.974 C606.926942,16.0906667 605.628442,15.4193333 604.197442,14.96 C602.766442,14.5006667 601.255942,14.271 599.665942,14.271 C597.192609,14.271 594.984275,14.748 593.040942,15.702 C591.097609,16.656 589.454609,17.9368333 588.111942,19.5445 C586.769275,21.1521667 585.744609,23.0336667 585.037942,25.189 C584.331275,27.3443333 583.977942,29.641 583.977942,32.079 C583.977942,34.517 584.331275,36.8136667 585.037942,38.969 C585.744609,41.1243333 586.769275,43.0058333 588.111942,44.6135 C589.454609,46.2211667 591.097609,47.502 593.040942,48.456 C594.984275,49.41 597.192609,49.887 599.665942,49.887 C601.503275,49.887 603.225775,49.5071667 604.833442,48.7475 C606.441109,47.9878333 607.845609,46.9808333 609.046942,45.7265 C610.248275,44.4721667 611.211109,43.0235 611.935442,41.3805 C612.659775,39.7375 613.074942,38.0326667 613.180942,36.266 L615.512942,36.266 C615.300942,38.5273333 614.744442,40.612 613.843442,42.52 C612.942442,44.428 611.794109,46.0798333 610.398442,47.4755 C609.002775,48.8711667 607.386275,49.9576667 605.548942,50.735 C603.711609,51.5123333 601.750609,51.901 599.665942,51.901 C596.839275,51.901 594.304109,51.3886667 592.060442,50.364 C589.816775,49.3393333 587.926442,47.9348333 586.389442,46.1505 C584.852442,44.3661667 583.677609,42.2638333 582.864942,39.8435 C582.052275,37.4231667 581.645942,34.835 581.645942,32.079 Z" id="Path"></path>
                <polygon id="Path" points="624.047272 13.158 649.487272 13.158 649.487272 15.172 626.379272 15.172 626.379272 30.33 648.109272 30.33 648.109272 32.344 626.379272 32.344 626.379272 48.986 649.752272 48.986 649.752272 51 624.047272 51"></polygon>
                <polygon id="Path" points="675.777932 13.158 678.109932 13.158 678.109932 48.986 699.574932 48.986 699.574932 51 675.777932 51"></polygon>
                <polygon id="Path" points="696.131263 15.172 696.131263 13.158 725.122263 13.158 725.122263 15.172 711.766263 15.172 711.766263 51 709.434263 51 709.434263 15.172"></polygon>
                <path d="M731.377593,13.158 L743.779593,13.158 C747.171593,13.158 749.989426,13.688 752.233093,14.748 C754.476759,15.808 756.269926,17.2213333 757.612593,18.988 C758.955259,20.7546667 759.900426,22.7686667 760.448093,25.03 C760.995759,27.2913333 761.269593,29.6233333 761.269593,32.026 C761.269593,34.7113333 760.925093,37.2111667 760.236093,39.5255 C759.547093,41.8398333 758.478259,43.845 757.029593,45.541 C755.580926,47.237 753.752426,48.5708333 751.544093,49.5425 C749.335759,50.5141667 746.712259,51 743.673593,51 L731.377593,51 L731.377593,13.158 Z M743.885593,48.986 C745.652259,48.986 747.427759,48.7121667 749.212093,48.1645 C750.996426,47.6168333 752.612926,46.6981667 754.061593,45.4085 C755.510259,44.1188333 756.685093,42.3875 757.586093,40.2145 C758.487093,38.0415 758.937593,35.312 758.937593,32.026 C758.937593,29.4466667 758.681426,27.2383333 758.169093,25.401 C757.656759,23.5636667 756.985426,22.0178333 756.155093,20.7635 C755.324759,19.5091667 754.370759,18.5198333 753.293093,17.7955 C752.215426,17.0711667 751.102426,16.5146667 749.954093,16.126 C748.805759,15.7373333 747.657426,15.4811667 746.509093,15.3575 C745.360759,15.2338333 744.327259,15.172 743.408593,15.172 L733.709593,15.172 L733.709593,48.986 L743.885593,48.986 Z" id="Shape"></path>
            </g>
        </g>
    </g>
</svg>